<svg width="15" height="15" viewBox="0 0 15 15" fill="none" xmlns="http://www.w3.org/2000/svg">
<path d="M2.56201 3.9616C2.56201 3.77595 2.63576 3.5979 2.76704 3.46662C2.89831 3.33535 3.07636 3.2616 3.26201 3.2616H11.662C11.8477 3.2616 12.0257 3.33535 12.157 3.46662C12.2883 3.5979 12.362 3.77595 12.362 3.9616C12.362 4.14725 12.2883 4.3253 12.157 4.45657C12.0257 4.58785 11.8477 4.6616 11.662 4.6616H3.26201C3.07636 4.6616 2.89831 4.58785 2.76704 4.45657C2.63576 4.3253 2.56201 4.14725 2.56201 3.9616ZM2.56201 7.4616C2.56201 7.27595 2.63576 7.0979 2.76704 6.96662C2.89831 6.83535 3.07636 6.7616 3.26201 6.7616H11.662C11.8477 6.7616 12.0257 6.83535 12.157 6.96662C12.2883 7.0979 12.362 7.27595 12.362 7.4616C12.362 7.64725 12.2883 7.8253 12.157 7.95657C12.0257 8.08785 11.8477 8.1616 11.662 8.1616H3.26201C3.07636 8.1616 2.89831 8.08785 2.76704 7.95657C2.63576 7.8253 2.56201 7.64725 2.56201 7.4616ZM2.56201 10.9616C2.56201 10.7759 2.63576 10.5979 2.76704 10.4666C2.89831 10.3353 3.07636 10.2616 3.26201 10.2616H11.662C11.7539 10.2616 11.845 10.2797 11.9299 10.3149C12.0148 10.3501 12.092 10.4016 12.157 10.4666C12.222 10.5316 12.2735 10.6088 12.3087 10.6937C12.3439 10.7786 12.362 10.8697 12.362 10.9616C12.362 11.0535 12.3439 11.1445 12.3087 11.2295C12.2735 11.3144 12.222 11.3916 12.157 11.4566C12.092 11.5216 12.0148 11.5731 11.9299 11.6083C11.845 11.6435 11.7539 11.6616 11.662 11.6616H3.26201C3.07636 11.6616 2.89831 11.5878 2.76704 11.4566C2.63576 11.3253 2.56201 11.1472 2.56201 10.9616Z" fill="#DADADA"/>
</svg>
