<svg width="16" height="17" viewBox="0 0 16 17" fill="none" xmlns="http://www.w3.org/2000/svg">
<path d="M8 15.5C4.14 15.5 1 12.36 1 8.5C1 4.64 4.14 1.5 8 1.5C11.86 1.5 15 4.64 15 8.5C15 12.36 11.86 15.5 8 15.5ZM8 2.5C4.69 2.5 2 5.19 2 8.5C2 11.81 4.69 14.5 8 14.5C11.31 14.5 14 11.81 14 8.5C14 5.19 11.31 2.5 8 2.5Z" fill="#01BC8D"/>
<path d="M8 12C7.72 12 7.5 11.78 7.5 11.5V5.5C7.5 5.22 7.72 5 8 5C8.28 5 8.5 5.22 8.5 5.5V11.5C8.5 11.78 8.28 12 8 12Z" fill="#01BC8D"/>
<path d="M11 9H5C4.72 9 4.5 8.78 4.5 8.5C4.5 8.22 4.72 8 5 8H11C11.28 8 11.5 8.22 11.5 8.5C11.5 8.78 11.28 9 11 9Z" fill="#01BC8D"/>
</svg>
