<svg width="26" height="26" viewBox="0 0 26 26" fill="none" xmlns="http://www.w3.org/2000/svg">
<path d="M14.3402 13.4716L17.6922 10.0998C17.8576 9.91853 17.9469 9.68 17.9416 9.43403C17.9363 9.18805 17.8368 8.95365 17.6638 8.77973C17.4908 8.60582 17.2577 8.50584 17.0132 8.50067C16.7686 8.49549 16.5315 8.58552 16.3514 8.75197L16.3523 8.75109L13.0002 12.1229L9.64816 8.75109C9.46793 8.58477 9.2308 8.49489 8.98627 8.50022C8.74174 8.50556 8.5087 8.60569 8.33581 8.77971C8.16291 8.95374 8.06352 9.18821 8.05838 9.43419C8.05324 9.68017 8.14274 9.91863 8.30821 10.0998L8.30734 10.0989L11.6594 13.4708L8.30734 16.8426C8.21302 16.9296 8.1372 17.0349 8.08442 17.1522C8.03164 17.2695 8.003 17.3963 8.00022 17.5251C7.99745 17.6538 8.0206 17.7817 8.06827 17.9012C8.11595 18.0207 8.18717 18.1292 8.27764 18.2203C8.36811 18.3114 8.47597 18.3831 8.59472 18.4311C8.71347 18.4791 8.84065 18.5025 8.96861 18.4998C9.09658 18.4971 9.22267 18.4684 9.33931 18.4153C9.45594 18.3623 9.56071 18.2861 9.64729 18.1913L9.64816 18.1904L13.0002 14.8186L16.3523 18.1904C16.4388 18.2853 16.5435 18.3616 16.6601 18.4147C16.7767 18.4678 16.9028 18.4966 17.0308 18.4994C17.1587 18.5021 17.2859 18.4789 17.4047 18.4309C17.5235 18.383 17.6314 18.3113 17.7219 18.2203C17.8125 18.1293 17.8837 18.0208 17.9315 17.9014C17.9793 17.7819 18.0025 17.654 17.9998 17.5253C17.9971 17.3965 17.9685 17.2697 17.9158 17.1524C17.8631 17.0351 17.7874 16.9297 17.6931 16.8426L17.6922 16.8417L14.3402 13.4716Z" fill="#F3F3F3" fill-opacity="0.4"/>
</svg>
