<svg width="20" height="21" viewBox="0 0 20 21" fill="none" xmlns="http://www.w3.org/2000/svg">
<path d="M15.8336 14.0415C15.9571 14.0414 16.0778 14.0047 16.1805 13.936C16.2832 13.8673 16.3632 13.7697 16.4105 13.6556C16.4577 13.5415 16.4701 13.4159 16.446 13.2947C16.422 13.1736 16.3625 13.0622 16.2752 12.9748L10.4419 7.1415C10.3247 7.02446 10.1658 6.95872 10.0002 6.95872C9.8346 6.95872 9.67575 7.02446 9.55856 7.1415L3.72522 12.9748C3.63793 13.0622 3.57849 13.1736 3.55442 13.2947C3.53035 13.4159 3.54272 13.5415 3.58998 13.6556C3.63724 13.7697 3.71727 13.8673 3.81995 13.936C3.92263 14.0047 4.04336 14.0414 4.16689 14.0415L15.8336 14.0415Z" fill="#F3F3F3"/>
</svg>
