<svg width="15" height="16" viewBox="0 0 15 16" fill="none" xmlns="http://www.w3.org/2000/svg">
<path d="M3.41083 4.12976C3.51055 3.12481 3.98031 2.19283 4.72883 1.51491C5.47734 0.836986 6.45116 0.461548 7.46104 0.461548C8.47092 0.461548 9.44473 0.836986 10.1933 1.51491C10.9418 2.19283 11.4115 3.12481 11.5112 4.12976L11.7219 6.24105C11.7352 6.36997 11.7411 6.43406 11.7492 6.49742C11.8553 7.369 12.1548 8.20586 12.6258 8.94684L12.7673 9.16121L13.4015 10.113C13.9813 10.9823 14.2708 11.4162 14.1441 11.7661C14.1195 11.8329 14.0864 11.8947 14.0447 11.9517C13.8237 12.2515 13.3014 12.2515 12.2575 12.2515H2.66458C1.62072 12.2515 1.09842 12.2515 0.877424 11.9517C0.835813 11.8949 0.80257 11.8324 0.77871 11.7661C0.651267 11.4162 0.940778 10.9815 1.5198 10.113L2.15481 9.16121L2.29625 8.94684C2.76728 8.20586 3.06679 7.369 3.17289 6.49742C3.18025 6.43406 3.18762 6.36997 3.20014 6.24105L3.41083 4.12976Z" fill="#F3F3F3"/>
<path d="M6.03784 14.189C6.12182 14.2671 6.30673 14.3363 6.56456 14.3857C6.82166 14.435 7.13695 14.4615 7.46109 14.4615C7.78522 14.4615 8.10052 14.435 8.35761 14.3857C8.61471 14.3363 8.79962 14.2671 8.88433 14.1882" fill="#F3F3F3"/>
<path d="M6.03784 14.189C6.12182 14.2671 6.30673 14.3363 6.56456 14.3857C6.82166 14.435 7.13695 14.4615 7.46109 14.4615C7.78522 14.4615 8.10052 14.435 8.35761 14.3857C8.61471 14.3363 8.79962 14.2671 8.88433 14.1882" stroke="#F3F3F3" stroke-width="1.75" stroke-linecap="round"/>
</svg>
