<svg width="20" height="20" viewBox="0 0 20 20" fill="none" xmlns="http://www.w3.org/2000/svg">
<g clip-path="url(#clip0_1_405)">
<path d="M13.6166 7.76825C13.6966 7.69362 13.7612 7.60395 13.8066 7.50436C13.852 7.40477 13.8773 7.29722 13.8811 7.18784C13.885 7.07846 13.8672 6.96939 13.8289 6.86687C13.7906 6.76436 13.7324 6.67039 13.6578 6.59034C13.5832 6.51028 13.4935 6.44572 13.3939 6.40032C13.2943 6.35492 13.1868 6.32959 13.0774 6.32576C12.968 6.32193 12.8589 6.33968 12.7564 6.378C12.6539 6.41631 12.5599 6.47445 12.4799 6.54909L10.0416 8.82242L7.76822 6.38325C7.61611 6.22746 7.40906 6.13738 7.19138 6.13231C6.9737 6.12723 6.76268 6.20755 6.60347 6.35609C6.44427 6.50463 6.34952 6.70958 6.3395 6.92708C6.32949 7.14459 6.405 7.35738 6.54989 7.51992L8.82322 9.95825L6.38405 12.2316C6.30117 12.3055 6.23389 12.3952 6.18616 12.4954C6.13843 12.5956 6.11121 12.7044 6.10611 12.8153C6.101 12.9262 6.11811 13.037 6.15642 13.1412C6.19474 13.2455 6.25349 13.341 6.32923 13.4221C6.40497 13.5033 6.49617 13.5685 6.59747 13.614C6.69877 13.6594 6.80813 13.6842 6.91913 13.6868C7.03013 13.6893 7.14052 13.6697 7.24383 13.6291C7.34714 13.5884 7.44128 13.5275 7.52072 13.4499L9.95905 11.1774L12.2324 13.6158C12.3058 13.7002 12.3954 13.7689 12.496 13.818C12.5965 13.867 12.7059 13.8953 12.8176 13.9011C12.9293 13.907 13.0411 13.8903 13.1462 13.852C13.2513 13.8138 13.3476 13.7547 13.4295 13.6785C13.5113 13.6022 13.5769 13.5102 13.6224 13.408C13.6679 13.3058 13.6924 13.1955 13.6944 13.0837C13.6964 12.9719 13.6758 12.8608 13.634 12.757C13.5921 12.6533 13.5298 12.5591 13.4507 12.4799L11.1782 10.0416L13.6166 7.76825Z" fill="#F3F3F3" fill-opacity="0.4"/>
<path fill-rule="evenodd" clip-rule="evenodd" d="M0.833252 9.99992C0.833252 4.93742 4.93742 0.833252 9.99992 0.833252C15.0624 0.833252 19.1666 4.93742 19.1666 9.99992C19.1666 15.0624 15.0624 19.1666 9.99992 19.1666C4.93742 19.1666 0.833252 15.0624 0.833252 9.99992ZM9.99992 17.4999C9.01501 17.4999 8.03974 17.3059 7.12979 16.929C6.21985 16.5521 5.39306 15.9997 4.69662 15.3032C4.00018 14.6068 3.44773 13.78 3.07082 12.87C2.69391 11.9601 2.49992 10.9848 2.49992 9.99992C2.49992 9.01501 2.69391 8.03974 3.07082 7.12979C3.44773 6.21985 4.00018 5.39306 4.69662 4.69662C5.39306 4.00018 6.21985 3.44773 7.12979 3.07082C8.03974 2.69391 9.01501 2.49992 9.99992 2.49992C11.989 2.49992 13.8967 3.29009 15.3032 4.69662C16.7097 6.10314 17.4999 8.0108 17.4999 9.99992C17.4999 11.989 16.7097 13.8967 15.3032 15.3032C13.8967 16.7097 11.989 17.4999 9.99992 17.4999Z" fill="#F3F3F3" fill-opacity="0.4"/>
</g>
<defs>
<clipPath id="clip0_1_405">
<rect width="20" height="20" fill="white"/>
</clipPath>
</defs>
</svg>
