<svg width="20" height="20" viewBox="0 0 20 20" fill="none" xmlns="http://www.w3.org/2000/svg">
<path d="M3.3334 3.33325L16.6667 16.6666M13.7501 13.9633C12.6226 14.5708 11.3484 14.9999 10.0001 14.9999C7.0584 14.9999 4.47173 12.9566 2.98923 11.4824C2.59757 11.0933 2.40174 10.8991 2.27757 10.5166C2.1884 10.2441 2.1884 9.75575 2.27757 9.48325C2.40257 9.10075 2.5984 8.90575 2.99007 8.51659C3.73757 7.77325 4.76507 6.88659 5.97673 6.18909M16.2501 12.1949C16.5276 11.9508 16.7817 11.7099 17.0101 11.4833L17.0126 11.4808C17.4026 11.0924 17.5984 10.8974 17.7226 10.5174C17.8117 10.2449 17.8117 9.75575 17.7226 9.48325C17.5976 9.10159 17.4026 8.90658 17.0109 8.51742C15.5276 7.04325 12.9426 4.99992 10.0001 4.99992C9.7184 4.99992 9.44062 5.0177 9.16673 5.05325M11.1026 11.2499C10.7798 11.5349 10.3592 11.684 9.92899 11.6658C9.49876 11.6476 9.09227 11.4636 8.7947 11.1523C8.49712 10.8411 8.33157 10.4267 8.33273 9.99613C8.33388 9.56552 8.50166 9.15207 8.8009 8.84242" stroke="#F3F3F3" stroke-opacity="0.4" stroke-width="2" stroke-linecap="round" stroke-linejoin="round"/>
</svg>
