<svg width="287" height="41" viewBox="0 0 287 41" fill="none" xmlns="http://www.w3.org/2000/svg">
<path d="M0.334531 41V0.2H14.4345L21.6345 29.96L28.8345 0.2H42.9345V41H34.6545V9.44H33.7545L25.7745 39.2H17.4945L9.51453 9.44H8.61453V41H0.334531ZM48.4184 41L57.5984 0.2H73.3184L82.4984 41H74.2184L72.5984 33.62H58.3184L56.6984 41H48.4184ZM64.0184 7.04L59.8784 26.42H71.0384L66.8984 7.04H64.0184ZM96.2122 27.32V41H87.9322V0.2H103.772C113.372 0.2 118.172 4.68 118.172 13.64C118.172 18.96 116.172 22.88 112.172 25.4L117.992 41H108.932L104.192 27.32H96.2122ZM103.892 20.24C105.852 20.24 107.312 19.64 108.272 18.44C109.232 17.24 109.712 15.66 109.712 13.7C109.712 11.74 109.192 10.18 108.152 9.02C107.152 7.86 105.692 7.28 103.772 7.28H96.2122V20.24H103.892ZM133.419 41H125.139V0.2H133.419V18.14L138.939 17.54L145.659 0.2H155.079L146.199 20.66L155.319 41H145.779L138.939 24.74L133.419 25.34V41ZM160.706 41V0.2H187.106V7.4H168.986V16.94H183.506V24.02H168.986V33.8H187.106V41H160.706ZM190.268 7.52V0.2H220.268V7.52H209.468V41H201.188V7.52H190.268ZM225.51 41V0.2H251.55V7.4H233.79V19.4H248.31V26.6H233.79V41H225.51ZM262.665 0.2L270.225 15.2L277.965 0.2H286.545L274.785 21.02L286.545 41H277.365L269.805 26.9L262.065 41H253.485L265.245 21.44L253.485 0.2H262.665Z" fill="#01BC8D"/>
</svg>
