<svg width="20" height="20" viewBox="0 0 20 20" fill="none" xmlns="http://www.w3.org/2000/svg">
<path d="M9.80123 3.10989C9.81473 3.06791 9.8412 3.03129 9.87685 3.00531C9.91249 2.97933 9.95545 2.96533 9.99956 2.96533C10.0437 2.96533 10.0866 2.97933 10.1223 3.00531C10.1579 3.03129 10.1844 3.06791 10.1979 3.10989L11.6362 7.53823C11.6498 7.58014 11.6763 7.61668 11.7119 7.64258C11.7476 7.66848 11.7905 7.68242 11.8346 7.68239H16.4912C16.5352 7.68245 16.578 7.69639 16.6135 7.72224C16.6491 7.74808 16.6755 7.78451 16.6891 7.8263C16.7027 7.86808 16.7027 7.9131 16.6892 7.95491C16.6756 7.99672 16.6492 8.03317 16.6137 8.05906L12.8471 10.7966C12.8114 10.8224 12.7848 10.859 12.7712 10.9009C12.7575 10.9428 12.7576 10.988 12.7712 11.0299L14.2096 15.4574C14.2231 15.4992 14.2231 15.5442 14.2096 15.586C14.1961 15.6278 14.1697 15.6642 14.1342 15.6901C14.0987 15.716 14.0559 15.73 14.012 15.7301C13.968 15.7302 13.9252 15.7164 13.8896 15.6907L10.1221 12.9532C10.0865 12.9273 10.0436 12.9134 9.99956 12.9134C9.95554 12.9134 9.91266 12.9273 9.87706 12.9532L6.11039 15.6907C6.07478 15.7168 6.03182 15.7308 5.9877 15.7309C5.94358 15.7309 5.90059 15.717 5.86491 15.691C5.82923 15.6651 5.80271 15.6285 5.78917 15.5865C5.77563 15.5445 5.77576 15.4993 5.78956 15.4574L7.22789 11.0291C7.24165 10.9872 7.24181 10.9421 7.22833 10.9002C7.21486 10.8583 7.18845 10.8217 7.15289 10.7957L3.38539 8.05989C3.34989 8.034 3.32347 7.99755 3.30994 7.95574C3.2964 7.91393 3.29643 7.86892 3.31002 7.82713C3.32361 7.78534 3.35007 7.74892 3.38561 7.72307C3.42115 7.69723 3.46395 7.68328 3.50789 7.68323H8.16456C8.20861 7.68326 8.25154 7.66932 8.28718 7.64341C8.32282 7.61751 8.34932 7.58098 8.36289 7.53906L9.80123 3.10989Z" stroke="#F3F3F3" stroke-opacity="0.4"/>
</svg>
