<svg width="12" height="15" viewBox="0 0 12 15" fill="none" xmlns="http://www.w3.org/2000/svg">
<path fill-rule="evenodd" clip-rule="evenodd" d="M3.46133 3.46155C3.46133 2.6659 3.7774 1.90284 4.34 1.34023C4.90261 0.777618 5.66568 0.461548 6.46132 0.461548C7.25697 0.461548 8.02003 0.777618 8.58264 1.34023C9.14525 1.90284 9.46132 2.6659 9.46132 3.46155C9.46132 4.25719 9.14525 5.02026 8.58264 5.58286C8.02003 6.14547 7.25697 6.46154 6.46132 6.46154C5.66568 6.46154 4.90261 6.14547 4.34 5.58286C3.7774 5.02026 3.46133 4.25719 3.46133 3.46155ZM0.961994 12.8649C0.984474 11.4212 1.57375 10.0442 2.60263 9.03126C3.63151 8.01828 5.01747 7.45051 6.46132 7.45051C7.90518 7.45051 9.29114 8.01828 10.32 9.03126C11.3489 10.0442 11.9382 11.4212 11.9607 12.8649C11.9624 12.9621 11.9358 13.0577 11.884 13.1399C11.8323 13.2222 11.7577 13.2877 11.6693 13.3282C10.0353 14.077 8.25872 14.4636 6.46132 14.4615C4.60399 14.4615 2.83933 14.0562 1.25333 13.3282C1.16498 13.2877 1.09038 13.2222 1.03864 13.1399C0.986893 13.0577 0.96026 12.9621 0.961994 12.8649Z" fill="#F3F3F3"/>
</svg>
