<svg width="106" height="13" viewBox="0 0 106 13" fill="none" xmlns="http://www.w3.org/2000/svg">
<path d="M5.33115 10.695C4.39515 10.695 3.59782 10.4913 2.93915 10.084C2.28048 9.67233 1.77565 9.10033 1.42465 8.368C1.07798 7.63567 0.904648 6.78633 0.904648 5.82C0.904648 4.85367 1.07798 4.00433 1.42465 3.272C1.77565 2.53967 2.28048 1.96983 2.93915 1.5625C3.59782 1.15083 4.39515 0.945 5.33115 0.945C6.26282 0.945 7.05798 1.15083 7.71665 1.5625C8.37965 1.96983 8.88448 2.53967 9.23115 3.272C9.57782 4.00433 9.75115 4.85367 9.75115 5.82C9.75115 6.78633 9.57782 7.63567 9.23115 8.368C8.88448 9.10033 8.37965 9.67233 7.71665 10.084C7.05798 10.4913 6.26282 10.695 5.33115 10.695ZM5.33115 9.4015C5.99415 9.41017 6.54448 9.265 6.98215 8.966C7.42415 8.66267 7.75565 8.24233 7.97665 7.705C8.19765 7.16333 8.30815 6.535 8.30815 5.82C8.30815 5.105 8.19765 4.481 7.97665 3.948C7.75565 3.41067 7.42415 2.9925 6.98215 2.6935C6.54448 2.3945 5.99415 2.24283 5.33115 2.2385C4.66815 2.22983 4.11565 2.375 3.67365 2.674C3.23598 2.973 2.90665 3.39333 2.68565 3.935C2.46465 4.47667 2.35198 5.105 2.34765 5.82C2.34332 6.535 2.45165 7.16117 2.67265 7.6985C2.89365 8.2315 3.22515 8.6475 3.66715 8.9465C4.11348 9.2455 4.66815 9.39717 5.33115 9.4015ZM13.1273 10.5V2.4205H10.0138V1.14H17.5993V2.4205H14.4858V10.5H13.1273ZM18.6395 10.5V1.14H26.082V10.5H24.7235V2.4205H19.998V10.5H18.6395ZM27.9071 10.5V1.14H31.6901C31.7811 1.14 31.8937 1.14433 32.0281 1.153C32.1624 1.15733 32.2902 1.17033 32.4116 1.192C32.9316 1.27433 33.3649 1.452 33.7116 1.725C34.0626 1.998 34.3247 2.3425 34.4981 2.7585C34.6714 3.1745 34.7581 3.63383 34.7581 4.1365C34.7581 4.6435 34.6714 5.105 34.4981 5.521C34.3247 5.937 34.0626 6.2815 33.7116 6.5545C33.3649 6.8275 32.9316 7.00517 32.4116 7.0875C32.2902 7.10483 32.1602 7.11783 32.0216 7.1265C31.8872 7.13517 31.7767 7.1395 31.6901 7.1395H29.2656V10.5H27.9071ZM29.2656 5.8525H31.6381C31.7247 5.8525 31.8201 5.84817 31.9241 5.8395C32.0324 5.83083 32.1342 5.81567 32.2296 5.794C32.5069 5.729 32.7301 5.60983 32.8991 5.4365C33.0681 5.25883 33.1894 5.05517 33.2631 4.8255C33.3367 4.59583 33.3736 4.36617 33.3736 4.1365C33.3736 3.90683 33.3367 3.67933 33.2631 3.454C33.1894 3.22433 33.0681 3.02283 32.8991 2.8495C32.7301 2.67183 32.5069 2.5505 32.2296 2.4855C32.1342 2.4595 32.0324 2.44217 31.9241 2.4335C31.8201 2.42483 31.7247 2.4205 31.6381 2.4205H29.2656V5.8525ZM34.887 10.5L37.929 1.14H39.8855L42.9275 10.5H41.517L38.7155 1.959H39.0665L36.2975 10.5H34.887ZM36.4665 8.3875V7.1135H41.3545V8.3875H36.4665ZM44.0936 10.5V1.14H47.7726C48.3663 1.14 48.8646 1.26133 49.2676 1.504C49.6706 1.74667 49.9739 2.06083 50.1776 2.4465C50.3813 2.82783 50.4831 3.23083 50.4831 3.6555C50.4831 4.17117 50.3553 4.61317 50.0996 4.9815C49.8483 5.34983 49.5081 5.60117 49.0791 5.7355L49.0661 5.417C49.6641 5.56433 50.1234 5.8525 50.4441 6.2815C50.7648 6.70617 50.9251 7.20233 50.9251 7.77C50.9251 8.32033 50.8146 8.79917 50.5936 9.2065C50.3769 9.61383 50.0584 9.93233 49.6381 10.162C49.2221 10.3873 48.7173 10.5 48.1236 10.5H44.0936ZM45.4716 9.2065H47.9156C48.2233 9.2065 48.4984 9.148 48.7411 9.031C48.9881 8.914 49.1809 8.74717 49.3196 8.5305C49.4626 8.3095 49.5341 8.04733 49.5341 7.744C49.5341 7.46233 49.4713 7.20883 49.3456 6.9835C49.2243 6.75383 49.0466 6.574 48.8126 6.444C48.5829 6.30967 48.3121 6.2425 48.0001 6.2425H45.4716V9.2065ZM45.4716 4.962H47.7531C48.0044 4.962 48.2298 4.91217 48.4291 4.8125C48.6328 4.7085 48.7931 4.56117 48.9101 4.3705C49.0314 4.1755 49.0921 3.9415 49.0921 3.6685C49.0921 3.3045 48.9708 3.0055 48.7281 2.7715C48.4854 2.5375 48.1604 2.4205 47.7531 2.4205H45.4716V4.962ZM59.5831 10.5H58.2051V3.5385L53.5966 10.5H52.2186V1.14H53.5966V8.095L58.2051 1.14H59.5831V10.5ZM63.7308 10.5V2.4205H60.6173V1.14H68.2028V2.4205H65.0893V10.5H63.7308ZM69.2365 10.5V1.14H70.595V4.5005H73.0195C73.1062 4.5005 73.2167 4.50483 73.351 4.5135C73.4897 4.51783 73.6175 4.53083 73.7345 4.5525C74.2545 4.63483 74.6878 4.8125 75.0345 5.0855C75.3855 5.3585 75.6477 5.703 75.821 6.119C75.9987 6.535 76.0875 6.9965 76.0875 7.5035C76.0875 8.00617 76.0008 8.4655 75.8275 8.8815C75.6542 9.2975 75.392 9.642 75.041 9.915C74.6943 10.188 74.2588 10.3657 73.7345 10.448C73.6175 10.4653 73.4918 10.4783 73.3575 10.487C73.2232 10.4957 73.1105 10.5 73.0195 10.5H69.2365ZM70.595 9.2195H72.9675C73.0498 9.2195 73.143 9.21517 73.247 9.2065C73.3553 9.19783 73.4572 9.1805 73.5525 9.1545C73.8342 9.0895 74.0573 8.97033 74.222 8.797C74.391 8.61933 74.5123 8.41783 74.586 8.1925C74.664 7.96283 74.703 7.73317 74.703 7.5035C74.703 7.27383 74.664 7.04417 74.586 6.8145C74.5123 6.58483 74.391 6.38333 74.222 6.21C74.0573 6.03233 73.8342 5.911 73.5525 5.846C73.4572 5.82 73.3553 5.80483 73.247 5.8005C73.143 5.79183 73.0498 5.7875 72.9675 5.7875H70.595V9.2195ZM80.1229 10.5V1.14H81.4814V5.508L85.4009 1.14H87.0909L82.9504 5.7095L87.3964 10.5H85.6544L81.4814 6.028V10.5H80.1229ZM91.7354 10.695C90.7994 10.695 90.0021 10.4913 89.3434 10.084C88.6848 9.67233 88.1799 9.10033 87.8289 8.368C87.4823 7.63567 87.3089 6.78633 87.3089 5.82C87.3089 4.85367 87.4823 4.00433 87.8289 3.272C88.1799 2.53967 88.6848 1.96983 89.3434 1.5625C90.0021 1.15083 90.7994 0.945 91.7354 0.945C92.6671 0.945 93.4623 1.15083 94.1209 1.5625C94.7839 1.96983 95.2888 2.53967 95.6354 3.272C95.9821 4.00433 96.1554 4.85367 96.1554 5.82C96.1554 6.78633 95.9821 7.63567 95.6354 8.368C95.2888 9.10033 94.7839 9.67233 94.1209 10.084C93.4623 10.4913 92.6671 10.695 91.7354 10.695ZM91.7354 9.4015C92.3984 9.41017 92.9488 9.265 93.3864 8.966C93.8284 8.66267 94.1599 8.24233 94.3809 7.705C94.6019 7.16333 94.7124 6.535 94.7124 5.82C94.7124 5.105 94.6019 4.481 94.3809 3.948C94.1599 3.41067 93.8284 2.9925 93.3864 2.6935C92.9488 2.3945 92.3984 2.24283 91.7354 2.2385C91.0724 2.22983 90.5199 2.375 90.0779 2.674C89.6403 2.973 89.3109 3.39333 89.0899 3.935C88.8689 4.47667 88.7563 5.105 88.7519 5.82C88.7476 6.535 88.8559 7.16117 89.0769 7.6985C89.2979 8.2315 89.6294 8.6475 90.0714 8.9465C90.5178 9.2455 91.0724 9.39717 91.7354 9.4015ZM96.7236 12.06V9.2195C97.0443 9.2195 97.3086 9.13933 97.5166 8.979C97.7246 8.81433 97.8893 8.59117 98.0106 8.3095C98.1363 8.0235 98.2316 7.6985 98.2966 7.3345C98.3659 6.9705 98.4179 6.587 98.4526 6.184C98.5046 5.638 98.5479 5.105 98.5826 4.585C98.6216 4.06067 98.6563 3.519 98.6866 2.96C98.7213 2.401 98.7581 1.79217 98.7971 1.1335L104.79 1.14V9.2195H105.486V12.06H104.121V10.5H98.0821V12.06H96.7236ZM98.9531 9.2195H103.432V2.4205L100.052 2.414C100.021 2.89067 99.9953 3.3435 99.9736 3.7725C99.9519 4.2015 99.9238 4.63483 99.8891 5.0725C99.8588 5.50583 99.8198 5.97167 99.7721 6.47C99.7244 6.94667 99.6746 7.35183 99.6226 7.6855C99.5706 8.01483 99.4926 8.30083 99.3886 8.5435C99.2889 8.78617 99.1438 9.0115 98.9531 9.2195Z" fill="#F3F3F3"/>
</svg>
